<?xml version="1.0" encoding="UTF-8"?>
<svg xmlns="http://www.w3.org/2000/svg" xmlns:xlink="http://www.w3.org/1999/xlink" width="150px" height="150px" viewBox="0 0 150 150" version="1.1">
<g id="surface1">
<path style=" stroke:none;fill-rule:nonzero;fill:rgb(79.607844%,65.882355%,47.058824%);fill-opacity:1;" d="M 128.550781 62.699219 C 128.550781 50.160156 118.351562 39.945312 105.78125 39.945312 C 93.210938 39.945312 100.859375 40.679688 98.265625 41.835938 L 75 18.523438 L 51.734375 41.835938 C 49.125 40.664062 46.589844 39.945312 44.21875 39.945312 C 31.679688 39.945312 21.449219 50.144531 21.449219 62.699219 C 21.449219 75.253906 22.710938 71.339844 25.078125 75.03125 C 22.695312 78.703125 21.449219 82.964844 21.449219 87.359375 C 21.449219 99.898438 31.648438 110.113281 44.21875 110.113281 C 56.789062 110.113281 49.171875 109.378906 51.765625 108.210938 L 74.984375 131.476562 L 98.203125 108.210938 C 100.816406 109.378906 103.378906 110.113281 105.75 110.113281 C 118.289062 110.113281 128.519531 99.914062 128.519531 87.359375 C 128.519531 74.804688 127.261719 78.71875 124.890625 75.03125 C 127.273438 71.355469 128.519531 67.09375 128.519531 62.699219 M 78.046875 56.28125 L 78.015625 30.136719 L 92.746094 44.878906 C 87.945312 47.953125 83.191406 51.945312 79.214844 55.289062 C 78.839844 55.621094 78.449219 55.949219 78.046875 56.28125 M 71.96875 30.164062 L 71.96875 56.296875 C 71.566406 55.933594 71.160156 55.589844 70.800781 55.273438 C 66.824219 51.914062 62.085938 47.941406 57.269531 44.863281 L 71.96875 30.136719 Z M 44.234375 46.003906 C 50.398438 46.003906 60.71875 54.703125 66.898438 59.910156 C 68.21875 61.035156 69.316406 61.949219 70.261719 62.699219 C 69.328125 63.449219 68.234375 64.363281 66.871094 65.503906 C 65.011719 67.066406 62.488281 69.210938 59.835938 71.25 C 53.355469 66.703125 48.421875 64.589844 44.234375 64.589844 C 40.050781 64.589844 33.464844 66.585938 29.324219 70.183594 C 28.15625 67.859375 27.523438 65.265625 27.523438 62.683594 C 27.523438 53.476562 35.011719 45.988281 44.234375 45.988281 M 54.613281 75.03125 C 50.21875 77.925781 46.726562 79.394531 44.234375 79.394531 C 40.050781 79.394531 36.074219 77.851562 32.984375 75.03125 C 36.074219 72.210938 40.050781 70.664062 44.234375 70.664062 C 48.421875 70.664062 50.191406 72.136719 54.613281 75.03125 M 71.96875 93.78125 L 71.96875 119.863281 L 57.300781 105.148438 C 62.101562 102.074219 66.855469 98.085938 70.859375 94.710938 C 71.21875 94.410156 71.59375 94.09375 71.96875 93.78125 M 78.046875 119.835938 L 78.015625 93.75 C 78.421875 94.09375 78.824219 94.441406 79.199219 94.753906 C 83.160156 98.101562 87.886719 102.074219 92.699219 105.148438 L 78.03125 119.835938 Z M 105.78125 104.039062 C 99.613281 104.039062 89.28125 95.339844 83.113281 90.136719 C 81.796875 89.023438 80.699219 88.109375 79.753906 87.359375 C 80.671875 86.609375 81.78125 85.695312 83.128906 84.554688 C 85.230469 82.769531 87.644531 80.761719 90.164062 78.796875 C 96.644531 83.355469 101.59375 85.453125 105.78125 85.453125 C 109.964844 85.453125 116.535156 83.476562 120.691406 79.859375 C 121.859375 82.183594 122.488281 84.78125 122.488281 87.359375 C 122.488281 96.570312 115.003906 104.054688 105.78125 104.054688 M 95.414062 75.03125 C 99.839844 72.136719 103.320312 70.664062 105.796875 70.664062 C 109.980469 70.664062 113.953125 72.210938 117.046875 75.03125 C 113.953125 77.851562 109.964844 79.394531 105.796875 79.394531 C 101.625 79.394531 99.855469 77.925781 95.414062 75.03125 M 120.703125 70.214844 C 116.550781 66.601562 111.269531 64.621094 105.796875 64.621094 C 100.320312 64.621094 94.800781 67.589844 86.550781 73.949219 C 83.910156 75.988281 70.710938 86.925781 66.886719 90.148438 C 60.71875 95.339844 50.386719 104.054688 44.21875 104.054688 C 34.996094 104.054688 27.511719 96.570312 27.511719 87.359375 C 27.511719 78.148438 28.140625 82.183594 29.308594 79.859375 C 33.464844 83.476562 38.746094 85.453125 44.21875 85.453125 C 52.605469 85.453125 63.121094 76.589844 70.785156 70.125 C 71.773438 69.300781 73.53125 67.84375 75.511719 66.210938 L 75.71875 66.046875 C 78.253906 63.960938 81.105469 61.621094 83.101562 59.925781 C 89.28125 54.734375 99.601562 46.019531 105.765625 46.019531 C 114.976562 46.019531 122.476562 53.503906 122.476562 62.714844 C 122.476562 71.925781 121.84375 67.890625 120.675781 70.214844 "/>
<path style=" stroke:none;fill-rule:nonzero;fill:rgb(79.607844%,65.882355%,47.058824%);fill-opacity:1;" d="M 75 0 C 33.644531 0 0 33.644531 0 75 C 0 116.355469 33.644531 150 75 150 C 116.355469 150 150 116.355469 150 75 C 150 33.644531 116.355469 0 75 0 M 75 144.148438 C 36.871094 144.148438 5.851562 113.128906 5.851562 75 C 5.851562 36.871094 36.871094 5.851562 75 5.851562 C 113.128906 5.851562 144.148438 36.871094 144.148438 75 C 144.148438 113.128906 113.128906 144.148438 75 144.148438 "/>
</g>
</svg>
