<?xml version="1.0" encoding="UTF-8"?>
<svg id="Layer_1" xmlns="http://www.w3.org/2000/svg" version="1.1" viewBox="0 0 1920 1080">
  <!-- Generator: Adobe Illustrator 30.1.0, SVG Export Plug-In . SVG Version: 2.1.1 Build 136)  -->
  <defs>
    <style>
      .st0 {
        fill: #0a2657;
      }

      .st1 {
        fill: #cba878;
      }
    </style>
  </defs>
  <path class="st1" d="M505.3,505.4c0-35.8-29.2-65-65.1-65s-14,2.1-21.5,5.4l-66.5-66.6-66.5,66.6c-7.4-3.3-14.7-5.4-21.5-5.4-35.9,0-65.1,29.1-65.1,65s3.6,24.7,10.4,35.2c-6.8,10.5-10.4,22.7-10.4,35.2,0,35.8,29.2,65,65.1,65s14.1-2.1,21.6-5.5l66.3,66.5,66.3-66.5c7.5,3.4,14.8,5.5,21.6,5.5,35.9,0,65.1-29.1,65.1-65s-3.6-24.7-10.4-35.2c6.8-10.5,10.4-22.7,10.4-35.2M361,487v-74.7l42,42.1c-13.8,8.8-27.3,20.2-38.7,29.8-1.1.9-2.2,1.9-3.3,2.8M343.6,412.3v74.7c-1.2-1-2.3-2-3.4-2.9-11.4-9.6-24.9-21-38.7-29.7l42-42.1h0ZM264.4,457.7c17.6,0,47.1,24.9,64.8,39.8,3.8,3.2,6.9,5.8,9.6,8-2.7,2.1-5.8,4.8-9.6,8-5.3,4.5-12.5,10.6-20.1,16.4-18.5-13-32.7-19-44.6-19s-30.8,5.7-42.6,16c-3.4-6.6-5.2-14-5.2-21.4,0-26.3,21.4-47.7,47.8-47.7M294,540.6c-12.6,8.3-22.6,12.5-29.7,12.5-12,0-23.3-4.4-32.2-12.5,8.8-8.1,20.2-12.5,32.2-12.5s17,4.2,29.7,12.5M343.6,594.2v74.5l-41.9-42c13.8-8.8,27.3-20.2,38.7-29.8,1-.9,2.1-1.7,3.2-2.7M361,668.7v-74.5c1.1,1,2.3,2,3.3,2.8,11.3,9.6,24.8,20.9,38.5,29.7l-41.9,42h0ZM440.3,623.5c-17.6,0-47.1-24.9-64.8-39.8-3.8-3.2-6.9-5.8-9.6-8,2.7-2.1,5.8-4.8,9.6-8,6-5.1,12.9-10.9,20.1-16.4,18.5,13,32.7,19,44.6,19s30.8-5.7,42.6-16c3.4,6.6,5.1,14,5.1,21.4,0,26.3-21.4,47.7-47.8,47.7M410.7,540.6c12.7-8.3,22.6-12.5,29.6-12.5,12,0,23.3,4.4,32.2,12.5-8.8,8.1-20.2,12.5-32.2,12.5s-17-4.2-29.6-12.5M482.9,526.8c-11.9-10.3-27-16-42.6-16s-31.5,8.5-55,26.7c-7.5,5.9-45.3,37.1-56.1,46.3-17.6,14.9-47.1,39.7-64.8,39.7-26.4,0-47.8-21.4-47.8-47.7s1.8-14.8,5.2-21.4c11.8,10.3,27,16,42.6,16,23.9,0,54-25.3,75.9-43.8,2.8-2.4,7.8-6.5,13.5-11.2l.6-.5c7.3-6,15.4-12.7,21.1-17.5,17.6-14.9,47.1-39.8,64.8-39.8,26.4,0,47.8,21.4,47.8,47.7s-1.8,14.8-5.1,21.4"/>
  <path class="st1" d="M352.3,326.2c-118.2,0-214.3,96.1-214.3,214.3s96.1,214.3,214.3,214.3,214.3-96.1,214.3-214.3-96.1-214.3-214.3-214.3M352.3,738.1c-109,0-197.6-88.6-197.6-197.6s88.6-197.6,197.6-197.6,197.6,88.6,197.6,197.6-88.6,197.6-197.6,197.6"/>
  <path class="st0" d="M1104.2,585.1c-30.2,0-51.3-1-68.6-13.8-13.9-10.3-21.2-27.5-21.2-49.6v-16.3c0-42.6,25.5-63.3,78-63.3h11.8c52.6,0,78.1,20.7,78.1,63.3v16.3c0,42.6-25.5,63.3-78.1,63.3M1104.2,465.2c-28.3,0-42.9.9-54,9.1-8.6,6.3-12,15-12,31.1v16.3c0,30.5,13.2,40.3,54.2,40.3h11.8c41,0,54.2-9.8,54.2-40.3v-16.3c0-30.5-13.2-40.3-54.2-40.3"/>
  <path class="st0" d="M657.7,583.9v-140.4l80.1-.2c60.8,0,67.4,29,67.4,41.5v7.2c0,12.5-6.6,41.5-67.3,41.5h-56.7v50.3h-23.5ZM737.8,509.9c40.3,0,43.8-8.8,43.8-17.8v-7.2c0-9.1-3.4-18-43.8-18h-56.7v43h56.7Z"/>
  <path class="st0" d="M962.8,583.9l-11.5-23c-7.8-15.7-8.6-24.6-30.1-24.6h-61.2v47.7h-23.5v-140.6h80.1c60.8,0,67.3,29.9,67.3,42.8v7.4c0,16.1-10.1,32.4-22.2,36.6,2.7,5.1,8.2,16.1,10.3,20.2l17,33.6h-26.4.1ZM916.7,512.8c40.3,0,43.7-9.5,43.7-19.3v-7.4c0-9.3-3.4-19.3-43.7-19.3h-56.7v45.9h56.7Z"/>
  <path class="st0" d="M1291.7,585.1c-30.1,0-45.9-1.3-59.9-9.1-11.7-6.6-18.9-19.2-18.9-32.9v-15h23.5v15c0,12.5,7,18.9,45.2,18.9s55.2-2.3,55.2-15.6v-5.8c0-7-.8-8.2-7.1-11-9.2-3.9-21.8-4.6-48.1-4.6s-36.8-2-47.3-6.3c-12.9-5.5-21.3-18.1-21.3-32.2v-5.8c0-25.3,23.7-38.7,68.6-38.7s45.8,1.3,59.9,9.1c11.7,6.6,18.9,19.2,18.9,32.9v15h-23.6v-15c0-12.5-7-18.9-45-18.9s-55.4,2.3-55.4,15.6v5.8c0,6.8.8,8,7.3,10.8,9.2,3.9,21.8,4.6,48.1,4.6s36.9,2,47.4,6.5c12.9,5.5,21.2,18.1,21.2,32.2v5.8c0,25.3-23.7,38.7-68.6,38.7"/>
  <polygon class="st0" points="1394.8 583.9 1394.8 443.3 1542.3 443.3 1542.3 466.8 1418.3 466.8 1418.3 510.6 1519 510.6 1519 534.3 1418.3 534.3 1418.3 583.9 1394.8 583.9"/>
  <polygon class="st0" points="1761.1 583.9 1653.2 478.3 1653.2 583.9 1630.1 583.9 1630.1 443.3 1650.8 443.3 1758.7 548.7 1758.7 443.3 1782 443.3 1782 583.9 1761.1 583.9"/>
  <rect class="st0" x="1575.1" y="443.3" width="23.6" height="140.6"/>
  <path class="st0" d="M657.7,678.5v-47.7h22.2c9.9,0,16.3,5.9,16.3,15.1s-6.6,15.2-16.3,15.2h-14.6v17.5h-7.5ZM679.8,653.9c5.5,0,8.7-2.9,8.7-8s-3-8-8.6-8h-14.7v16h14.6Z"/>
  <path class="st0" d="M757.7,678.5l-6-12.6c-2.1-4.4-5.3-6.3-10.9-6.3h-9.3v18.9h-7.5v-47.7h21.3c10,0,16.5,5.7,16.5,14.5s-3.1,9.9-7.9,12c1.9,1.3,3.5,3.2,4.6,5.5l7.6,15.7h-8.4ZM744.6,652.6c5.9,0,9.5-2.8,9.5-7.3s-3-7.4-8.9-7.4h-13.8v14.7h13.2Z"/>
  <path class="st0" d="M816.5,679.1c-14.2,0-22.6-9-22.6-24.1s8.6-24.7,22.6-24.7,22.7,9.5,22.7,24.7-8.7,24.1-22.7,24.1M816.5,637.3c-13.6,0-15.1,12.3-15.1,17.6s2,17.1,15.1,17.1,15-10.7,15-17.1-1.5-17.6-15-17.6"/>
  <path class="st0" d="M888.3,679.1c-8.4,0-16.1-2.9-20.6-7.8l-.7-.8,5.7-5.3.7.6c4.6,4.2,9.1,6,14.7,6s12.1-2.5,12.1-6.6-2.9-5.3-8.2-6.6l-8.5-2.3c-7.7-2.1-14.8-5.1-14.8-12.9s5-13.4,19.1-13.4,14.2,2.6,18.5,7.3l.6.8-5.6,5.3-.7-.8c-3-3.5-7.5-5.5-12.8-5.5s-11.6,2.4-11.6,6,2.7,4.3,10.4,6.4c1,.3,6.4,1.7,7.5,2,11.3,2.9,13.6,8.8,13.6,13.3,0,6.7-5.1,14-19.4,14"/>
  <path class="st0" d="M935.5,678.5v-47.7h22.2c9.9,0,16.3,5.9,16.3,15.1s-6.6,15.2-16.3,15.2h-14.6v17.5h-7.5ZM957.6,653.9c5.5,0,8.6-2.9,8.6-8s-3-8-8.6-8h-14.7v16h14.7Z"/>
  <polygon class="st0" points="1001.7 678.5 1001.7 630.8 1037.8 630.8 1037.8 637.8 1009.2 637.8 1009.2 651.1 1035 651.1 1035 658.2 1009.2 658.2 1009.2 671.4 1037.8 671.4 1037.8 678.5 1001.7 678.5"/>
  <path class="st0" d="M1099.3,678.5l-6-12.6c-2.1-4.4-5.3-6.3-10.9-6.3h-9.3v18.9h-7.5v-47.7h21.3c10,0,16.5,5.7,16.5,14.5s-3.1,9.9-7.9,12c1.9,1.3,3.5,3.2,4.6,5.5l7.6,15.7h-8.4ZM1086.2,652.6c5.9,0,9.5-2.8,9.5-7.3s-3-7.4-8.9-7.4h-13.8v14.7h13.2Z"/>
  <path class="st0" d="M1158.1,679.1c-14.2,0-22.6-9-22.6-24.1s8.7-24.7,22.6-24.7,22.7,9.5,22.7,24.7-8.7,24.1-22.7,24.1M1158.1,637.3c-13.6,0-15.1,12.3-15.1,17.6s2,17.1,15.1,17.1,15-10.7,15-17.1-1.5-17.6-15-17.6"/>
  <path class="st0" d="M1229.3,679.1c-13.7,0-20.7-7.5-20.7-22.5v-25.8h7.5v25.7c0,10.7,4.1,15.5,13.2,15.5s13.1-4.9,13.1-15.5v-25.7h7.5v25.8c0,14.9-6.9,22.5-20.6,22.5"/>
  <path class="st0" d="M1299,679.1c-8.4,0-16.1-2.9-20.6-7.8l-.7-.8,5.7-5.3.7.6c4.7,4.2,9.1,6,14.7,6s12.1-2.5,12.1-6.6-2.9-5.3-8.2-6.6l-8.5-2.3c-7.7-2.1-14.8-5.1-14.8-12.9s5-13.4,19.1-13.4,14.2,2.6,18.5,7.3l.6.8-5.6,5.3-.7-.8c-3-3.5-7.5-5.5-12.8-5.5s-11.6,2.4-11.6,6,2.7,4.3,10.4,6.4c1,.3,6.4,1.7,7.5,2,11.3,2.9,13.6,8.8,13.6,13.3,0,6.7-5.1,14-19.4,14"/>
  <polygon class="st0" points="1370.7 678.5 1370.7 630.8 1405.6 630.8 1405.6 637.8 1378.2 637.8 1378.2 652.2 1402.8 652.2 1402.8 659.3 1378.2 659.3 1378.2 678.5 1370.7 678.5"/>
  <rect class="st0" x="1432.4" y="630.8" width="7.5" height="47.7"/>
  <polygon class="st0" points="1500.2 678.5 1476 646.7 1474.1 643.9 1474.1 678.5 1466.7 678.5 1466.7 630.8 1473.2 630.8 1497.6 662.8 1499.2 665.3 1499.2 630.8 1506.7 630.8 1506.7 678.5 1500.2 678.5"/>
  <path class="st0" d="M1574.9,678.5l-5.2-11.6h-22.9l-5.2,11.6h-8.2l21.2-47.7h7.1l21.2,47.7h-8.2,0ZM1566.6,659.8l-7.8-17.5-.5-1.7-.5,1.6-7.8,17.6h16.7Z"/>
  <polygon class="st0" points="1643.4 678.5 1619.2 646.7 1617.4 643.9 1617.4 678.5 1609.9 678.5 1609.9 630.8 1616.4 630.8 1640.8 662.8 1642.5 665.3 1642.5 630.8 1649.9 630.8 1649.9 678.5 1643.4 678.5"/>
  <path class="st0" d="M1700.4,679.1c-14.8,0-23.6-9-23.6-24.1s9.1-24.7,23.7-24.7,13.8,2.5,18.1,7.4l.6.8-5.6,5.3-.7-.9c-2.7-3.7-6.8-5.4-12.3-5.4-14.5,0-16.1,12.3-16.1,17.6s2.1,17.1,16,17.1,9.6-1.7,12.3-5.3l.7-.9,5.6,5.3-.6.7c-4.2,4.8-10.4,7.4-18,7.4"/>
  <polygon class="st0" points="1746 678.5 1746 630.8 1782 630.8 1782 637.8 1753.4 637.8 1753.4 651.1 1779.2 651.1 1779.2 658.2 1753.4 658.2 1753.4 671.4 1782 671.4 1782 678.5 1746 678.5"/>
</svg>